<svg width="2389" height="1732" viewBox="0 0 2389 1732" fill="none" xmlns="http://www.w3.org/2000/svg">
<path d="M247.585 739.182V818.727H11.9318V739.182H247.585ZM65.8736 1121V711.589C65.8736 683.914 71.2595 660.962 82.0312 642.733C92.9688 624.504 107.884 610.832 126.776 601.717C145.668 592.603 167.128 588.045 191.158 588.045C207.398 588.045 222.23 589.288 235.653 591.774C249.242 594.26 259.351 596.497 265.98 598.486L247.088 678.031C242.945 676.705 237.808 675.463 231.676 674.303C225.71 673.143 219.579 672.562 213.281 672.562C197.704 672.562 186.849 676.208 180.717 683.5C174.586 690.626 171.52 700.652 171.52 713.578V1121H65.8736ZM471.12 1128.46C432.508 1128.46 399.115 1120.25 370.943 1103.85C342.936 1087.28 321.31 1064.24 306.064 1034.74C290.817 1005.08 283.194 970.692 283.194 931.582C283.194 892.141 290.817 857.671 306.064 828.173C321.31 798.509 342.936 775.474 370.943 759.068C399.115 742.496 432.508 734.21 471.12 734.21C509.733 734.21 543.043 742.496 571.049 759.068C599.222 775.474 620.931 798.509 636.177 828.173C651.423 857.671 659.047 892.141 659.047 931.582C659.047 970.692 651.423 1005.08 636.177 1034.74C620.931 1064.24 599.222 1087.28 571.049 1103.85C543.043 1120.25 509.733 1128.46 471.12 1128.46ZM471.618 1046.43C489.184 1046.43 503.85 1041.45 515.616 1031.51C527.382 1021.4 536.248 1007.65 542.214 990.247C548.346 972.847 551.412 953.043 551.412 930.837C551.412 908.63 548.346 888.827 542.214 871.426C536.248 854.026 527.382 840.271 515.616 830.162C503.85 820.053 489.184 814.999 471.618 814.999C453.886 814.999 438.971 820.053 426.873 830.162C414.941 840.271 405.91 854.026 399.778 871.426C393.812 888.827 390.829 908.63 390.829 930.837C390.829 953.043 393.812 972.847 399.778 990.247C405.91 1007.65 414.941 1021.4 426.873 1031.51C438.971 1041.45 453.886 1046.43 471.618 1046.43ZM727.903 1121V739.182H830.566V805.801H834.544C841.504 782.103 853.187 764.205 869.593 752.108C886 739.845 904.892 733.713 926.27 733.713C931.573 733.713 937.29 734.044 943.422 734.707C949.553 735.37 954.939 736.282 959.579 737.442V831.405C954.608 829.913 947.73 828.588 938.947 827.428C930.164 826.268 922.127 825.688 914.835 825.688C899.257 825.688 885.337 829.085 873.074 835.879C860.976 842.508 851.364 851.788 844.238 863.72C837.278 875.652 833.798 889.407 833.798 904.984V1121H727.903ZM1168.57 1272.14C1134.27 1272.14 1104.85 1267.41 1080.33 1257.97C1055.97 1248.69 1036.58 1236.01 1022.16 1219.93C1007.74 1203.86 998.378 1185.8 994.07 1165.74L1092.01 1152.57C1094.99 1160.19 1099.72 1167.32 1106.18 1173.95C1112.64 1180.58 1121.18 1185.88 1131.78 1189.86C1142.55 1194 1155.65 1196.07 1171.06 1196.07C1194.09 1196.07 1213.07 1190.44 1227.98 1179.17C1243.06 1168.06 1250.6 1149.42 1250.6 1123.24V1053.39H1246.13C1241.49 1063.99 1234.53 1074.02 1225.25 1083.46C1215.97 1092.91 1204.04 1100.62 1189.45 1106.58C1174.87 1112.55 1157.47 1115.53 1137.25 1115.53C1108.58 1115.53 1082.48 1108.9 1058.95 1095.64C1035.58 1082.22 1016.94 1061.76 1003.02 1034.25C989.264 1006.57 982.386 971.604 982.386 929.345C982.386 886.092 989.429 849.965 1003.52 820.964C1017.6 791.964 1036.33 770.254 1059.69 755.837C1083.23 741.419 1109 734.21 1137 734.21C1158.38 734.21 1176.28 737.856 1190.7 745.148C1205.11 752.274 1216.71 761.223 1225.5 771.994C1234.45 782.6 1241.32 793.041 1246.13 803.315H1250.11V739.182H1355.26V1124.73C1355.26 1157.21 1347.3 1184.39 1331.39 1206.26C1315.48 1228.14 1293.44 1244.54 1265.27 1255.48C1237.26 1266.58 1205.03 1272.14 1168.57 1272.14ZM1170.81 1035.99C1187.88 1035.99 1202.3 1031.76 1214.06 1023.31C1225.99 1014.69 1235.11 1002.43 1241.41 986.518C1247.87 970.444 1251.1 951.22 1251.1 928.848C1251.1 906.476 1247.95 887.087 1241.65 870.68C1235.36 854.108 1226.24 841.265 1214.31 832.151C1202.38 823.036 1187.88 818.479 1170.81 818.479C1153.41 818.479 1138.74 823.202 1126.81 832.648C1114.88 841.928 1105.85 854.854 1099.72 871.426C1093.58 887.998 1090.52 907.139 1090.52 928.848C1090.52 950.889 1093.58 969.946 1099.72 986.021C1106.01 1001.93 1115.04 1014.28 1126.81 1023.06C1138.74 1031.68 1153.41 1035.99 1170.81 1035.99ZM1613.53 1128.46C1574.25 1128.46 1540.45 1120.5 1512.11 1104.59C1483.94 1088.52 1462.23 1065.82 1446.98 1036.48C1431.74 1006.98 1424.11 972.101 1424.11 931.831C1424.11 892.555 1431.74 858.086 1446.98 828.422C1462.23 798.758 1483.69 775.64 1511.36 759.068C1539.2 742.496 1571.85 734.21 1609.3 734.21C1634.49 734.21 1657.94 738.27 1679.65 746.391C1701.53 754.345 1720.58 766.36 1736.83 782.435C1753.23 798.509 1765.99 818.727 1775.11 843.088C1784.22 867.283 1788.78 895.621 1788.78 928.102V957.186H1466.37V891.561H1689.1C1689.1 876.315 1685.78 862.809 1679.15 851.043C1672.53 839.277 1663.33 830.079 1651.56 823.45C1639.96 816.656 1626.46 813.259 1611.04 813.259C1594.97 813.259 1580.72 816.987 1568.29 824.445C1556.03 831.736 1546.41 841.597 1539.45 854.026C1532.49 866.289 1528.93 879.961 1528.76 895.041V957.435C1528.76 976.327 1532.24 992.65 1539.2 1006.4C1546.33 1020.16 1556.36 1030.77 1569.28 1038.22C1582.21 1045.68 1597.54 1049.41 1615.27 1049.41C1627.04 1049.41 1637.81 1047.75 1647.59 1044.44C1657.36 1041.12 1665.73 1036.15 1672.69 1029.52C1679.65 1022.89 1684.96 1014.77 1688.6 1005.16L1786.54 1011.62C1781.57 1035.16 1771.38 1055.71 1755.97 1073.27C1740.72 1090.67 1721 1104.26 1696.8 1114.04C1672.77 1123.65 1645.02 1128.46 1613.53 1128.46ZM2060.97 739.182V818.727H1831.04V739.182H2060.97ZM1883.24 647.705H1989.13V1003.67C1989.13 1013.45 1990.63 1021.07 1993.61 1026.54C1996.59 1031.84 2000.73 1035.57 2006.04 1037.73C2011.51 1039.88 2017.8 1040.96 2024.93 1040.96C2029.9 1040.96 2034.87 1040.54 2039.84 1039.71C2044.82 1038.72 2048.63 1037.97 2051.28 1037.48L2067.93 1116.28C2062.63 1117.93 2055.17 1119.84 2045.56 1121.99C2035.95 1124.31 2024.27 1125.72 2010.51 1126.22C1984.99 1127.21 1962.62 1123.82 1943.39 1116.03C1924.34 1108.24 1909.51 1096.14 1898.9 1079.74C1888.29 1063.33 1883.07 1042.61 1883.24 1017.59V647.705Z" fill="black"/>
<rect x="2122" y="1002" width="127" height="125.268" rx="30.0182" fill="#F7B500"/>
</svg>
